<svg xmlns="http://www.w3.org/2000/svg" viewBox="0 0 100 100"><g fill="none" stroke="#7c684d" stroke-width="3" stroke-linecap="round" opacity=".58"><path d="M8 17c10-5 18-5 27 0M54 15c12-5 23-4 36 2M18 46c11-5 22-4 31 1M61 43c9-4 18-3 28 1M7 76c13-5 25-4 37 1M53 78c12-5 23-4 39 2"/></g><g fill="#756246" opacity=".45"><circle cx="18" cy="30" r="2"/><circle cx="42" cy="28" r="3"/><circle cx="71" cy="31" r="2"/><circle cx="27" cy="61" r="2"/><circle cx="55" cy="64" r="3"/><circle cx="83" cy="60" r="2"/></g></svg>